<svg xmlns="http://www.w3.org/2000/svg">
    <defs>
        <symbol id="home" viewBox="0 0 24 24">
            <path
                    d="M21.71,11.29l-9-9a1,1,0,0,0-1.42,0l-9,9a1,1,0,0,0-.21,1.09A1,1,0,0,0,3,13H4v7.3A1.77,1.77,0,0,0,5.83,22H8.5a1,1,0,0,0,1-1V16.1a1,1,0,0,1,1-1h3a1,1,0,0,1,1,1V21a1,1,0,0,0,1,1h2.67A1.77,1.77,0,0,0,20,20.3V13h1a1,1,0,0,0,.92-.62A1,1,0,0,0,21.71,11.29Z"
            />
        </symbol>
        <symbol id="calendar" viewBox="0 0 24 24">
            <path d="M21 20V6c0-1.103-.897-2-2-2h-2V2h-2v2H9V2H7v2H5c-1.103 0-2 .897-2 2v14c0 1.103.897 2 2 2h14c1.103 0 2-.897 2-2zM9 18H7v-2h2v2zm0-4H7v-2h2v2zm4 4h-2v-2h2v2zm0-4h-2v-2h2v2zm4 4h-2v-2h2v2zm0-4h-2v-2h2v2zm2-5H5V7h14v2z"/>
        </symbol>
        <symbol id="standings" viewBox="0 0 24 24">
            <path d="M6.67 14H4C2.9 14 2 14.9 2 16V21C2 21.55 2.45 22 3 22H6.67C7.22 22 7.67 21.55 7.67 21V15C7.67 14.45 7.22 14 6.67 14Z"
            />
            <path d="M13.3302 10H10.6602C9.56016 10 8.66016 10.9 8.66016 12V21C8.66016 21.55 9.11016 22 9.66016 22H14.3302C14.8802 22 15.3302 21.55 15.3302 21V12C15.3302 10.9 14.4402 10 13.3302 10Z"
            />
            <path d="M20.0001 17H17.3301C16.7801 17 16.3301 17.45 16.3301 18V21C16.3301 21.55 16.7801 22 17.3301 22H21.0001C21.5501 22 22.0001 21.55 22.0001 21V19C22.0001 17.9 21.1001 17 20.0001 17Z"
            />
            <path d="M15.0095 4.85047C15.3195 4.54047 15.4395 4.17047 15.3395 3.85047C15.2395 3.53047 14.9295 3.30047 14.4895 3.23047L13.5295 3.07047C13.4895 3.07047 13.3995 3.00047 13.3795 2.96047L12.8495 1.90047C12.4495 1.09047 11.5395 1.09047 11.1395 1.90047L10.6095 2.96047C10.5995 3.00047 10.5095 3.07047 10.4695 3.07047L9.50945 3.23047C9.06945 3.30047 8.76945 3.53047 8.65945 3.85047C8.55945 4.17047 8.67945 4.54047 8.98945 4.85047L9.72945 5.60047C9.76945 5.63047 9.79945 5.75047 9.78945 5.79047L9.57945 6.71047C9.41945 7.40047 9.67945 7.71047 9.84945 7.83047C10.0195 7.95047 10.3895 8.11047 10.9995 7.75047L11.8995 7.22047C11.9395 7.19047 12.0695 7.19047 12.1095 7.22047L12.9995 7.75047C13.2795 7.92047 13.5095 7.97047 13.6895 7.97047C13.8995 7.97047 14.0495 7.89047 14.1395 7.83047C14.3095 7.71047 14.5695 7.40047 14.4095 6.71047L14.1995 5.79047C14.1895 5.74047 14.2195 5.63047 14.2595 5.60047L15.0095 4.85047Z"
            />
        </symbol>
        <symbol id="profile" viewBox="0 0 24 24">
            <path d="M18 2H6C4.34 2 3 3.33 3 4.97V15.88C3 17.52 4.34 18.85 6 18.85H6.76C7.56 18.85 8.32 19.16 8.88 19.72L10.59 21.41C11.37 22.18 12.64 22.18 13.42 21.41L15.13 19.72C15.69 19.16 16.46 18.85 17.25 18.85H18C19.66 18.85 21 17.52 21 15.88V4.97C21 3.33 19.66 2 18 2ZM12 5.75C13.29 5.75 14.33 6.79 14.33 8.08C14.33 9.37 13.29 10.41 12 10.41C10.71 10.41 9.67 9.36 9.67 8.08C9.67 6.79 10.71 5.75 12 5.75ZM14.68 15.06H9.32C8.51 15.06 8.04 14.16 8.49 13.49C9.17 12.48 10.49 11.8 12 11.8C13.51 11.8 14.83 12.48 15.51 13.49C15.96 14.16 15.48 15.06 14.68 15.06Z"
            />
        </symbol>
        <symbol id="favorite" viewBox="0 0 1000 1000">
            <path d="M476 801l-181 95q-18 10-36.5 4.5T229 879t-7-36l34-202q2-12-1.5-24T242 596L95 453q-15-14-15.5-33.5T91 385t32-18l203-30q12-2 22-9t16-18l90-184q10-18 28-25t36 0 28 25l90 184q6 11 16 18t22 9l203 30q20 3 32 18t11.5 34.5T905 453L758 596q-8 9-12 21t-2 24l34 202q4 20-7 36t-29.5 21.5T705 896l-181-95q-11-6-24-6t-24 6z"/>
        </symbol>
    </defs>
</svg>